. 
  
http://www.torrenting.com/        :     Greatest Movie Tracker on The Net!!!
 
http://www.Torrenting.com          :     Once & For all ;)


               www . Torrenting . Com 

(((((((((((((= Enjoy No RAR releases =))))))))))))))))))))


...................................NFO:....................................

.[img]http://img593.imageshack.us/img593/3273/xmr5xiv3ciswm1ry0867.jpg[/img]

SAMURAi Presents to you:
The.Smurfs.2011.BRRip.XviD.AC3-SAMURAi


Source: Bluray
Video: 720x400 @bitrate 1338 @2pass
Audio: English DTS to AC3 5.1 @448
Sample: yes, included  
http://www.imdb.com/title/tt0472181/


General
Complete name                    : The.Smurfs.2011.BRRip.XviD.AC3-SAMURAi.avi
Format                           : AVI
Format/Info                      : Audio Video Interleave
File size                        : 1.37 GiB
Duration                         : 1h 42mn
Overall bit rate                 : 1 906 Kbps
Writing application              : Nandub v1.0rc2
Writing library                  : Nandub build 1852/release

Video
ID                               : 0
Format                           : MPEG-4 Visual
Format profile                   : Advanced Simple@L5
Format settings, BVOP            : 2
Format settings, QPel            : No
Format settings, GMC             : No warppoints
Format settings, Matrix          : Default (H.263)
Muxing mode                      : Packed bitstream
Codec ID                         : XVID
Codec ID/Hint                    : XviD
Duration                         : 1h 42mn
Bit rate                         : 1 448 Kbps
Width                            : 720 pixels
Height                           : 400 pixels
Display aspect ratio             : 16:9
Frame rate                       : 23.976 fps
Color space                      : YUV
Chroma subsampling               : 4:2:0
Bit depth                        : 8 bits
Scan type                        : Progressive
Compression mode                 : Lossy
Bits/(Pixel*Frame)               : 0.210
Stream size                      : 1.04 GiB (76%)
Writing library                  : XviD 64

Audio
ID                               : 1
Format                           : AC-3
Format/Info                      : Audio Coding 3
Mode extension                   : CM (complete main)
Codec ID                         : 2000
Duration                         : 1h 42mn
Bit rate mode                    : Constant
Bit rate                         : 448 Kbps
Channel(s)                       : 6 channels
Channel positions                : Front: L C R, Side: L R, LFE
Sampling rate                    : 48.0 KHz
Bit depth                        : 16 bits
Compression mode                 : Lossy
Stream size                      : 330 MiB (24%)
Alignment                        : Split accross interleaves
Interleave, duration             : 42 ms (1.00 video frame)
Interleave, preload duration     : 500 ms



Plot
When the evil wizard Gargamel chases the tiny blue Smurfs out of their village, 
they tumble from their magical world and into ours.



Screenshots
[img]http://img12.imageshack.us/img12/196/vlcsnap2011100212h51m07.png[/img]
[img]http://img534.imageshack.us/img534/319/vlcsnap2011100217h49m20.png[/img]
[img]http://img72.imageshack.us/img72/2738/vlcsnap2011100217h47m11.png[/img]
[img]http://img13.imageshack.us/img13/452/vlcsnap2011100217h49m42.png[/img]


Greetz:
Cm8, Santi, Rx, Noir, Ember, NPW, Unknown, VIP3R, SiC, Flojo, and other
p2p groups come and past!

Contact:
Got any requests or anything to offer?
Contact me at SAMURAi@Hushmail.me